# xmcd CD database file
#
# Track frame offsets:
#	150
#	19146
#	37728
#	57707
#	70598
#	86258
#	100301
#	118780
#	135557
#	157092
#
# Disc length: 2387 seconds
#
# Revision: 0
# Processed by: cddbd v1.5.1PL2 Copyright (c) Steve Scherf et al.
# Submitted via: CDex 1.51
#
DISCID=7f09510a
DTITLE=杉並児童合唱団 - スタジオジブリ名曲選
DYEAR=2005
DGENRE=Chorus
TTITLE0=風の谷のナウシカ
TTITLE1=君をのせて
TTITLE2=となりのトトロ
TTITLE3=さんぽ
TTITLE4=めぐる季節
TTITLE5=やさしさに包まれたなら
TTITLE6=いつも何度でも
TTITLE7=もののけ姫
TTITLE8=カントリーロード
TTITLE9=世界の約束〜地球はメリーゴーランド
EXTD=YEAR: 2005
EXTT0=
EXTT1=
EXTT2=
EXTT3=
EXTT4=
EXTT5=
EXTT6=
EXTT7=
EXTT8=
EXTT9=
PLAYORDER=
